<svg xmlns="http://www.w3.org/2000/svg" viewBox="0 0 16 22" shape-rendering="crispEdges"><rect x="6" y="0" width="4" height="1" fill="#332B26"/><rect x="5" y="1" width="6" height="1" fill="#332B26"/><rect x="6" y="2" width="4" height="1" fill="#CE946F"/><rect x="5" y="3" width="6" height="1" fill="#CE946F"/><rect x="5" y="4" width="1" height="1" fill="#CE946F"/><rect x="6" y="4" width="1" height="1" fill="#120F0D"/><rect x="7" y="4" width="2" height="1" fill="#CE946F"/><rect x="9" y="4" width="1" height="1" fill="#120F0D"/><rect x="10" y="4" width="1" height="1" fill="#CE946F"/><rect x="5" y="5" width="6" height="1" fill="#CE946F"/><rect x="6" y="6" width="1" height="1" fill="#CE946F"/><rect x="7" y="6" width="2" height="1" fill="#9E6B4E"/><rect x="9" y="6" width="1" height="1" fill="#CE946F"/><rect x="7" y="7" width="2" height="1" fill="#CE946F"/><rect x="2" y="8" width="1" height="1" fill="#5C5048"/><rect x="3" y="8" width="1" height="1" fill="#9E6B4E"/><rect x="4" y="8" width="1" height="1" fill="#CE946F"/><rect x="5" y="8" width="6" height="1" fill="#E89B7C"/><rect x="11" y="8" width="1" height="1" fill="#CE946F"/><rect x="12" y="8" width="1" height="1" fill="#9E6B4E"/><rect x="13" y="8" width="1" height="1" fill="#5C5048"/><rect x="2" y="9" width="1" height="1" fill="#5C5048"/><rect x="3" y="9" width="1" height="1" fill="#928374"/><rect x="4" y="9" width="1" height="1" fill="#CE946F"/><rect x="5" y="9" width="1" height="1" fill="#E89B7C"/><rect x="6" y="9" width="1" height="1" fill="#B96F52"/><rect x="7" y="9" width="1" height="1" fill="#E89B7C"/><rect x="8" y="9" width="1" height="1" fill="#B96F52"/><rect x="9" y="9" width="1" height="1" fill="#E89B7C"/><rect x="10" y="9" width="1" height="1" fill="#B96F52"/><rect x="11" y="9" width="1" height="1" fill="#CE946F"/><rect x="12" y="9" width="1" height="1" fill="#928374"/><rect x="13" y="9" width="1" height="1" fill="#5C5048"/><rect x="2" y="10" width="1" height="1" fill="#5C5048"/><rect x="5" y="10" width="1" height="1" fill="#E89B7C"/><rect x="6" y="10" width="1" height="1" fill="#B96F52"/><rect x="7" y="10" width="1" height="1" fill="#E89B7C"/><rect x="8" y="10" width="1" height="1" fill="#B96F52"/><rect x="9" y="10" width="1" height="1" fill="#E89B7C"/><rect x="10" y="10" width="1" height="1" fill="#B96F52"/><rect x="13" y="10" width="1" height="1" fill="#5C5048"/><rect x="5" y="11" width="1" height="1" fill="#E89B7C"/><rect x="6" y="11" width="1" height="1" fill="#B96F52"/><rect x="7" y="11" width="1" height="1" fill="#E89B7C"/><rect x="8" y="11" width="1" height="1" fill="#B96F52"/><rect x="9" y="11" width="1" height="1" fill="#E89B7C"/><rect x="10" y="11" width="1" height="1" fill="#B96F52"/><rect x="5" y="12" width="1" height="1" fill="#E89B7C"/><rect x="6" y="12" width="1" height="1" fill="#B96F52"/><rect x="7" y="12" width="1" height="1" fill="#E89B7C"/><rect x="8" y="12" width="1" height="1" fill="#B96F52"/><rect x="9" y="12" width="1" height="1" fill="#E89B7C"/><rect x="10" y="12" width="1" height="1" fill="#B96F52"/><rect x="5" y="13" width="3" height="1" fill="#E89B7C"/><rect x="8" y="13" width="1" height="1" fill="#B96F52"/><rect x="9" y="13" width="2" height="1" fill="#E89B7C"/><rect x="5" y="14" width="6" height="1" fill="#E89B7C"/><rect x="5" y="15" width="6" height="1" fill="#9CB58F"/><rect x="6" y="16" width="4" height="1" fill="#2A231F"/><rect x="6" y="17" width="4" height="1" fill="#2A231F"/><rect x="6" y="18" width="1" height="1" fill="#CE946F"/><rect x="9" y="18" width="1" height="1" fill="#CE946F"/><rect x="6" y="19" width="1" height="1" fill="#CE946F"/><rect x="9" y="19" width="1" height="1" fill="#CE946F"/><rect x="6" y="20" width="1" height="1" fill="#CE946F"/><rect x="9" y="20" width="1" height="1" fill="#CE946F"/><rect x="5" y="21" width="2" height="1" fill="#D2C2AB"/><rect x="9" y="21" width="2" height="1" fill="#D2C2AB"/></svg>
